<?xml version="1.0" encoding="utf-8"?>
<!-- Generator: Adobe Illustrator 27.4.0, SVG Export Plug-In . SVG Version: 6.00 Build 0)  -->
<svg version="1.1" id="레이어_1" xmlns="http://www.w3.org/2000/svg" xmlns:xlink="http://www.w3.org/1999/xlink" x="0px"
	 y="0px" viewBox="0 0 152 34" style="enable-background:new 0 0 152 34;" xml:space="preserve">
<style type="text/css">
	.st0{fill:#435EBE;}
	.st1{fill-rule:evenodd;clip-rule:evenodd;fill:#41BBDD;}
	.st2{display:none;}
	.st3{display:inline;fill:#435EBE;}
	.st4{fill:#41BBDD;}
</style>
<g id="레이어_1_00000101097728199345789480000016418319152757707399_">
	<path class="st0" d="M0,27.5C0,31.9,6.2,33,13.5,33S27,31.9,27,27.5S20.8,22,13.5,22S0,23.1,0,27.5z"/>
	<circle class="st1" cx="13.5" cy="8.8" r="8.8"/>
</g>
<g id="레이어_2_00000083090632386418095750000016716384966402414779_" class="st2">
	<path class="st3" d="M71.7,3.2c0.7,0,1.3,0.2,1.7,0.7c0.4,0.4,0.6,1,0.6,1.7v22.5c0,0.7-0.2,1.3-0.6,1.7s-0.9,0.6-1.6,0.6
		s-1.2-0.2-1.6-0.6s-0.6-1-0.6-1.7V12.5l-6.5,12.2c-0.3,0.6-0.6,1-1,1.3s-0.8,0.4-1.3,0.4s-0.9-0.1-1.3-0.4s-0.7-0.7-1-1.3l-6.5-12
		v15.5c0,0.7-0.2,1.2-0.6,1.7c-0.4,0.4-0.9,0.6-1.6,0.6s-1.2-0.2-1.6-0.6s-0.6-1-0.6-1.7V5.7c0-0.7,0.2-1.3,0.6-1.7
		c0.4-0.5,1-0.7,1.7-0.7c1,0,1.8,0.5,2.3,1.6l8.8,16l8.4-16.1C70,3.8,70.7,3.2,71.7,3.2z M87.5,11.2c2.6,0,4.5,0.6,5.7,1.9
		c1.3,1.3,1.9,3.2,1.9,5.8v9.3c0,0.7-0.2,1.2-0.6,1.6s-1,0.6-1.7,0.6s-1.2-0.2-1.6-0.6s-0.6-0.9-0.6-1.6v-0.8
		c-0.4,1-1.1,1.8-2.1,2.3c-0.9,0.6-2,0.8-3.2,0.8s-2.4-0.3-3.4-0.8s-1.8-1.2-2.4-2.1s-0.9-1.9-0.9-3c0-1.4,0.3-2.4,1-3.2
		c0.7-0.8,1.8-1.4,3.4-1.7s3.7-0.5,6.5-0.5h0.9v-0.9c0-1.2-0.3-2.1-0.8-2.7c-0.5-0.6-1.4-0.9-2.6-0.9c-0.8,0-1.5,0.1-2.2,0.3
		c-0.8,0.2-1.7,0.5-2.7,0.9c-0.7,0.3-1.1,0.5-1.4,0.5c-0.5,0-0.8-0.2-1.1-0.5c-0.3-0.3-0.4-0.8-0.4-1.3c0-0.4,0.1-0.8,0.3-1.1
		c0.2-0.3,0.6-0.6,1.1-0.9c0.9-0.5,1.9-0.9,3.2-1.1C85.1,11.3,86.3,11.2,87.5,11.2z M86.3,27.1c1.3,0,2.3-0.4,3.1-1.3
		c0.8-0.9,1.2-2,1.2-3.3v-0.8h-0.7c-1.7,0-3,0.1-4,0.2s-1.6,0.4-2,0.8s-0.6,0.9-0.6,1.6c0,0.8,0.3,1.5,0.8,2
		C84.8,26.8,85.5,27.1,86.3,27.1z M113.8,26.6c1.4,0,2.1,0.6,2.1,1.8c0,0.6-0.2,1-0.5,1.3c-0.4,0.3-0.9,0.5-1.6,0.5h-12.7
		c-0.6,0-1.2-0.2-1.6-0.6s-0.6-0.9-0.6-1.4c0-0.6,0.2-1.1,0.7-1.7l9.8-11.3h-8.5c-0.7,0-1.2-0.2-1.6-0.5s-0.5-0.7-0.5-1.3
		s0.2-1,0.5-1.3s0.9-0.5,1.6-0.5h12.3c0.7,0,1.2,0.2,1.6,0.6c0.4,0.4,0.6,0.9,0.6,1.4c0,0.6-0.2,1.2-0.6,1.7L105,26.6
		C104.9,26.6,113.8,26.6,113.8,26.6z M133.5,25.1c0.4,0,0.8,0.2,1,0.5c0.3,0.3,0.4,0.8,0.4,1.3c0,0.8-0.5,1.4-1.4,2
		c-0.9,0.5-1.8,0.9-2.9,1.2c-1.1,0.3-2.1,0.4-3.1,0.4c-3,0-5.4-0.9-7.1-2.6s-2.6-4.1-2.6-7.1c0-1.9,0.4-3.6,1.1-5.1s1.8-2.6,3.2-3.4
		c1.4-0.8,3-1.2,4.7-1.2s3.1,0.4,4.4,1.1s2.2,1.8,2.9,3.1s1,2.9,1,4.7c0,1.1-0.5,1.6-1.4,1.6h-11.2c0.2,1.7,0.6,3,1.5,3.9
		c0.8,0.8,2.1,1.2,3.6,1.2c0.8,0,1.5-0.1,2.1-0.3c0.6-0.2,1.3-0.5,2.1-0.8C132.6,25.3,133.2,25.1,133.5,25.1z M127,14.5
		c-1.3,0-2.3,0.4-3.1,1.2c-0.8,0.8-1.2,2-1.4,3.5h8.6c-0.1-1.5-0.4-2.7-1.1-3.5C129.2,14.9,128.2,14.5,127,14.5z M149.4,11.2
		c0.7-0.1,1.2,0.1,1.6,0.4s0.6,0.8,0.6,1.5s-0.2,1.2-0.5,1.5s-0.9,0.5-1.8,0.6l-1.1,0.1c-1.5,0.2-2.6,0.7-3.3,1.5
		c-0.7,0.9-1,1.9-1,3.2v8c0,0.7-0.2,1.3-0.7,1.7c-0.5,0.4-1,0.6-1.7,0.6s-1.3-0.2-1.7-0.6s-0.6-1-0.6-1.7V13.4
		c0-0.7,0.2-1.3,0.6-1.6c0.5-0.4,1-0.6,1.7-0.6s1.2,0.2,1.6,0.6c0.4,0.4,0.6,0.9,0.6,1.6v1.5c0.5-1.1,1.2-2,2.1-2.6
		c1-0.6,2-0.9,3.2-1L149.4,11.2L149.4,11.2z"/>
</g>
<g>
	<path class="st4" d="M99.1,22.6h7.7v3.8H94.5V7.1h4.6V22.6z"/>
	<path class="st4" d="M117.7,26.4l-4.8-15.8v15.8h-3.8V7.1h7.1l3.4,11.6l3.6-11.6h7.1v19.3h-4.6V10.7l-4.9,15.8H117.7z"/>
	<path class="st4" d="M147.4,11.4l-3.9,1.3c-0.5-1.5-1.6-2.3-3.3-2.3c-1.8,0-2.7,0.6-2.7,1.7c0,0.5,0.2,0.9,0.5,1.2s1.1,0.6,2.3,0.8
		c2,0.4,3.4,0.8,4.3,1.2c0.9,0.4,1.7,1.1,2.3,2s0.9,1.9,0.9,3c0,1.7-0.7,3.3-2,4.5s-3.3,1.9-6,1.9c-2,0-3.7-0.5-5.1-1.4
		c-1.4-0.9-2.3-2.2-2.8-4l4.2-0.9c0.5,1.8,1.8,2.7,3.9,2.7c1,0,1.8-0.2,2.3-0.6c0.5-0.4,0.8-0.9,0.8-1.4c0-0.6-0.2-1-0.7-1.3
		s-1.4-0.6-2.7-0.9c-2.5-0.5-4.2-1.2-5.3-2.1c-1-0.9-1.6-2.2-1.6-3.9c0-1.7,0.6-3.2,1.9-4.3c1.2-1.2,2.9-1.8,5.1-1.8
		C143.9,6.8,146.3,8.3,147.4,11.4z"/>
</g>
<g>
	<path class="st0" d="M31.7,20.8l5.5-1c0.5,1.6,1.7,2.3,3.6,2.3c1.5,0,2.2-0.4,2.2-1.2c0-0.4-0.2-0.7-0.5-1c-0.3-0.2-1-0.4-1.8-0.6
		c-3.4-0.6-5.6-1.5-6.5-2.5s-1.4-2.3-1.4-3.7c0-1.8,0.7-3.3,2.1-4.5c1.4-1.2,3.4-1.8,6-1.8c3.9,0,6.5,1.6,7.8,4.7L43.6,13
		c-0.5-1.3-1.5-1.9-3.1-1.9c-1.3,0-1.9,0.4-1.9,1.2c0,0.4,0.1,0.6,0.4,0.8s0.9,0.4,1.7,0.6c2.3,0.5,4,0.9,4.9,1.3
		c1,0.4,1.8,1,2.4,1.9s1,2,1,3.2c0,2-0.8,3.5-2.4,4.8s-3.7,1.8-6.2,1.8C35.7,26.7,32.8,24.8,31.7,20.8z"/>
	<path class="st0" d="M62,19.1l5.4,0.3c-0.3,2.4-1.1,4.2-2.6,5.5c-1.5,1.3-3.3,1.9-5.5,1.9c-2.6,0-4.7-0.9-6.4-2.6
		c-1.6-1.7-2.4-4.1-2.4-7.2c0-3,0.8-5.5,2.3-7.3s3.7-2.8,6.4-2.8c2.6,0,4.5,0.7,5.9,2.1c1.4,1.4,2.2,3.3,2.3,5.6l-5.5,0.3
		c0-1.3-0.2-2.2-0.7-2.8c-0.5-0.6-1.1-0.9-1.7-0.9c-1.9,0-2.8,1.9-2.8,5.6c0,2.1,0.2,3.5,0.7,4.3c0.5,0.8,1.2,1.1,2,1.1
		C60.9,22.3,61.8,21.2,62,19.1z"/>
	<path class="st0" d="M75.5,7.1v19.3h-5.9V7.1H75.5z"/>
	<path class="st0" d="M86.8,11.7v14.7h-5.6V11.7h-4V7.1h13.6v4.6H86.8z"/>
</g>
</svg>
